<svg width="48" height="57" viewBox="0 0 48 57" fill="none" xmlns="http://www.w3.org/2000/svg">
<path d="M18.2046 12.5426C21.5931 12.7258 23.5028 12.7234 26.8529 12.5426V44.5411C23.4088 44.2965 21.6212 44.2862 18.2046 44.5411V12.5426Z" fill="#FE0000"/>
<path fill-rule="evenodd" clip-rule="evenodd" d="M30.9926 12.1839C33.3992 11.3959 36.6961 10.0341 39.2046 8.38566C41.0115 7.1983 45.3685 3.15358 46.127 2.38183C46.8048 1.69226 48 1.94942 48 3.24665V31.1356C48 32.2182 46.7302 33.3993 45.0101 33.0409C44.0699 32.845 43.29 32.6825 41.9999 32.3242C40.9458 32.0314 39.2763 31.7508 38.487 31.6425V48.7969C37.8678 48.4588 36.6709 47.8958 35.4567 47.3248C35.1268 47.1696 34.7955 47.0138 34.4743 46.8618C33.1091 46.2157 31.6791 45.715 30.9926 45.5V12.1839ZM40.1346 12.8008C39.4073 13.3043 38.5 13.8508 38.5 13.8508V26.7491C38.5 26.7491 40.278 26.7901 40.6364 26.7901C40.9947 26.7901 41.5 26.4507 41.5 25.5V13.8239C41.5 12.7078 40.862 12.2972 40.1346 12.8008Z" fill="#FE0000"/>
<path d="M0 56.1194V0C1.57679 1.86348 4.64393 5.08631 6.73719 6.88053C9.24572 9.0307 12.5426 11.1092 14.1194 11.6826V17.5142C13.331 17.2992 12 16.8146 11 16.3146C10 15.8146 9.00001 15.3146 7.66893 14.5V23.9385C8.60067 24.1535 9.89077 24.2969 10.9659 24.3686C12.0409 24.4402 13.4027 24.5119 14.1194 24.5119V31.3208C13.5461 31.3208 12.1126 31.3924 11.0375 31.4641C10.0014 31.5332 8.50511 31.6552 7.81227 31.7508V42.0001C8.55289 41.5461 10.2491 40.5666 10.9659 40.2083C11.7001 39.8411 13.5699 38.9182 14.4061 38.5598V45.1535C12.7577 45.7986 9.55849 47.6254 7.7406 49.0238C5.87712 50.4573 1.79181 54.3753 0 56.1194Z" fill="#FE0000"/>
</svg>
