<svg width="144" height="251" viewBox="0 0 144 251" fill="none" xmlns="http://www.w3.org/2000/svg">
<path fill-rule="evenodd" clip-rule="evenodd" d="M32.4283 87.0461C23.0875 99.3009 17.2711 116.012 17.2711 134.527C17.2711 173.097 42.1607 202.941 71.2936 202.941C100.427 202.941 125.316 173.097 125.316 134.527C125.316 116.967 120.084 101.026 111.571 88.9712L117.412 84.8468C126.823 98.1734 132.466 115.572 132.466 134.527C132.466 175.475 105.781 210.091 71.2936 210.091C36.8061 210.091 10.1211 175.475 10.1211 134.527C10.1211 114.546 16.3924 96.2898 26.7418 82.7117L32.4283 87.0461Z" fill="white"/>
<path fill-rule="evenodd" clip-rule="evenodd" d="M2.53731 0.735117C3.86512 0.102461 5.4449 0.347603 6.51854 1.3529C16.036 10.2646 41.6787 25.0431 72.8705 25.0431C103.998 25.0431 127.911 10.3147 137.482 1.3529C138.555 0.347603 140.135 0.102461 141.463 0.735117C142.791 1.36777 143.595 2.7491 143.491 4.21622C142.504 18.0912 134.784 28.3541 125.555 35.5991C116.361 42.8173 105.432 47.2497 97.2721 49.5735C85.827 52.8329 77.1229 62.2721 77.1229 76.7698H69.9729C69.9729 69.3827 67.8822 63.6982 64.2168 59.3609C60.514 54.9795 54.9566 51.6827 47.5502 49.5735C39.4073 47.2544 28.2829 42.8294 18.8882 35.6239C9.46715 28.3982 1.49923 18.1328 0.509063 4.21622C0.404677 2.7491 1.2095 1.36777 2.53731 0.735117ZM73.5255 60.5431C77.898 51.5271 85.91 45.3749 95.3138 42.6969C102.911 40.5333 112.904 36.4409 121.14 29.9752C126.911 25.4446 131.699 19.854 134.31 13.0197C121.254 22.1393 99.5262 32.1931 72.8705 32.1931C46.1328 32.1931 23.1955 22.0708 9.69342 12.9016C12.3559 19.7631 17.2885 25.3861 23.2396 29.9505C31.686 36.4287 41.895 40.5286 49.5086 42.6969C57.8587 45.0749 64.8105 48.9863 69.6778 54.7458C71.1855 56.5298 72.4698 58.4636 73.5255 60.5431Z" fill="white"/>
<path fill-rule="evenodd" clip-rule="evenodd" d="M17.0391 74.7741C13.3739 63.5254 14.8252 49.7718 25.3127 34.8929L31.1569 39.0121C21.7807 52.3144 20.9657 63.746 23.8373 72.559C26.7652 81.5447 33.6946 88.329 40.6521 91.8134C43.938 93.459 47.008 94.8492 49.9506 96.1816C50.3762 96.3744 50.7992 96.5659 51.2197 96.7568C54.5158 98.2531 57.688 99.7222 60.6557 101.388C65.2982 103.994 69.4618 107.093 73.158 111.641C76.5679 107.007 80.5339 104.037 85.0332 101.547C87.5789 100.138 90.3311 98.8642 93.1649 97.5524C93.4986 97.3979 93.8335 97.2429 94.1693 97.0871C97.3973 95.5892 100.821 93.9687 104.534 91.8904C111.637 87.9149 118.576 81.0738 121.498 72.2085C124.358 63.5289 123.56 52.3282 114.175 39.0121L120.019 34.8929C130.496 49.758 131.965 63.2903 128.289 74.4464C124.673 85.4167 116.273 93.5138 108.026 98.1295C104.065 100.347 100.437 102.061 97.1788 103.573C96.8431 103.729 96.5124 103.882 96.1864 104.033C93.309 105.365 90.8014 106.527 88.4954 107.803C83.5445 110.543 79.716 113.708 76.4984 119.751L73.5776 125.236L70.3041 119.954C66.6247 114.016 62.3871 110.56 57.1558 107.623C54.4849 106.124 51.5672 104.767 48.2642 103.267C47.8519 103.08 47.4339 102.891 47.0104 102.699C44.0738 101.37 40.8704 99.9193 37.4504 98.2065C29.0587 94.0039 20.648 85.8501 17.0391 74.7741Z" fill="white"/>
<path d="M44.5371 60.5515C52.9966 60.5515 59.9569 67.4093 59.9569 75.8689C51.4974 75.8689 44.5371 69.0111 44.5371 60.5515Z" fill="white"/>
<path fill-rule="evenodd" clip-rule="evenodd" d="M44.5371 60.5515C47.2003 60.5515 49.7149 61.2312 51.9105 62.4265C54.4859 63.8286 56.6224 65.9402 58.0451 68.4966C59.2623 70.6837 59.9569 73.1964 59.9569 75.8689C57.2938 75.8689 54.7792 75.1892 52.5836 73.9939C50.0082 72.5918 47.8716 70.4802 46.4489 67.9238C45.2318 65.7367 44.5371 63.224 44.5371 60.5515Z" fill="white"/>
<path d="M102.586 60.5515C94.1264 60.5515 87.1661 67.4093 87.1661 75.8689C95.6256 75.8689 102.586 69.0111 102.586 60.5515Z" fill="white"/>
<path fill-rule="evenodd" clip-rule="evenodd" d="M102.586 60.5515C99.9228 60.5515 97.4082 61.2312 95.2126 62.4265C92.6372 63.8286 90.5006 65.9402 89.0779 68.4966C87.8608 70.6837 87.1661 73.1964 87.1661 75.8689C89.8293 75.8689 92.3439 75.1892 94.5395 73.9939C97.1149 72.5918 99.2515 70.4802 100.674 67.9238C101.891 65.7367 102.586 63.224 102.586 60.5515Z" fill="white"/>
<path d="M49.8598 236.38C54.7141 239.826 62.3919 243.378 73.561 243.378V250.528C60.7554 250.528 51.6529 246.422 45.7205 242.21C42.77 240.115 40.6234 238.009 39.1978 236.401C38.4844 235.597 37.9493 234.914 37.582 234.416C36.8816 233.467 36.2894 232.445 35.6641 231.446L37.1471 229.482L37.1546 229.472L37.1922 229.421C37.227 229.375 37.2808 229.302 37.3517 229.205C37.4936 229.01 37.7036 228.719 37.9659 228.345C38.4912 227.596 39.2226 226.519 40.0357 225.227C41.6804 222.613 43.58 219.239 44.8191 215.957C46.1368 212.466 47.3181 208.728 48.1748 205.841C48.6016 204.403 48.9446 203.186 49.1804 202.331C49.2982 201.904 49.3891 201.568 49.4501 201.34C49.4806 201.226 49.5036 201.14 49.5188 201.082L49.5356 201.018L49.5404 201C49.5404 201 49.5403 201 52.9996 201.902C56.4589 202.805 56.4587 202.806 56.4587 202.806L56.4514 202.833L56.4317 202.908C56.4145 202.973 56.3895 203.068 56.3568 203.19C56.2915 203.433 56.1959 203.787 56.073 204.233C55.8272 205.124 55.4714 206.385 55.0294 207.875C54.1484 210.844 52.9117 214.765 51.5083 218.482C50.0263 222.408 47.8442 226.243 46.0874 229.035C45.4864 229.99 44.9258 230.838 44.4464 231.543C44.4795 231.581 44.5133 231.619 44.5476 231.658C45.6685 232.922 47.4169 234.645 49.8598 236.38Z" fill="white"/>
<path d="M96.7008 236.38C91.8465 239.826 84.1686 243.378 72.9995 243.378V250.528C85.8051 250.528 94.9076 246.422 100.84 242.21C103.791 240.115 105.937 238.009 107.363 236.401C108.076 235.597 108.611 234.914 108.979 234.416C109.679 233.467 110.271 232.445 110.896 231.446L109.413 229.482L109.406 229.472L109.368 229.421C109.334 229.375 109.28 229.302 109.209 229.205C109.067 229.01 108.857 228.719 108.595 228.345C108.069 227.596 107.338 226.519 106.525 225.227C104.88 222.613 102.981 219.239 101.741 215.957C100.424 212.466 99.2424 208.728 98.3858 205.841C97.9589 204.403 97.6159 203.186 97.3801 202.331C97.2623 201.904 97.1714 201.568 97.1104 201.34C97.0799 201.226 97.0569 201.14 97.0418 201.082L97.025 201.018L97.0201 201C97.0201 201 97.0202 201 93.5609 201.902C90.1016 202.805 90.1019 202.806 90.1019 202.806L90.1092 202.833L90.1289 202.908C90.146 202.973 90.1711 203.068 90.2037 203.19C90.269 203.433 90.3646 203.787 90.4876 204.233C90.7334 205.124 91.0891 206.385 91.5311 207.875C92.4122 210.844 93.6489 214.765 95.0522 218.482C96.5343 222.408 98.7164 226.243 100.473 229.035C101.074 229.99 101.635 230.838 102.114 231.543C102.081 231.581 102.047 231.619 102.013 231.658C100.892 232.922 99.1436 234.645 96.7008 236.38Z" fill="white"/>
<path fill-rule="evenodd" clip-rule="evenodd" d="M57.7505 107.531C57.916 107.327 58.0817 107.124 58.2478 106.919L52.652 102.469C52.351 102.839 52.0504 103.208 51.7503 103.577C34.3763 124.934 18.6221 144.3 20.7211 177.58L27.8946 177.12C25.9703 146.611 40.1371 129.19 57.7505 107.531Z" fill="white"/>
<path fill-rule="evenodd" clip-rule="evenodd" d="M86.4117 105.73C86.2479 105.529 86.0838 105.327 85.9194 105.125L91.5152 100.674C91.8126 101.04 92.1097 101.405 92.4063 101.77C109.59 122.892 125.184 142.061 122.91 175.148L115.739 174.649C117.821 144.355 103.827 127.146 86.4117 105.73Z" fill="white"/>
<path fill-rule="evenodd" clip-rule="evenodd" d="M79.8933 194.847C81.8678 194.847 83.4683 196.448 83.4683 198.422V209.234C83.4683 211.209 81.8678 212.809 79.8933 212.809C77.9189 212.809 76.3184 211.209 76.3184 209.234V198.422C76.3184 196.448 77.9189 194.847 79.8933 194.847Z" fill="white"/>
<path d="M69.0298 208.304H61.7734V212.402C61.7734 218.215 65.4016 221.873 65.4016 221.873C65.4016 221.873 69.0298 218.215 69.0298 212.402V208.304Z" fill="white"/>
<path fill-rule="evenodd" clip-rule="evenodd" d="M68.6907 215.454C67.7892 219.466 65.4016 221.873 65.4016 221.873C65.4016 221.873 63.014 219.466 62.1125 215.454C61.9666 214.804 61.8596 214.113 61.808 213.382C61.7854 213.063 61.7734 212.736 61.7734 212.402V208.304H69.0298V212.402C69.0298 212.736 69.0178 213.063 68.9953 213.382C68.9437 214.113 68.8367 214.804 68.6907 215.454Z" fill="white"/>
<path d="M83.5474 208.304H76.291V212.402C76.291 218.215 79.9192 221.873 79.9192 221.873C79.9192 221.873 83.5474 218.215 83.5474 212.402V208.304Z" fill="white"/>
<path fill-rule="evenodd" clip-rule="evenodd" d="M83.2083 215.454C82.3068 219.466 79.9192 221.873 79.9192 221.873C79.9192 221.873 77.5316 219.466 76.6301 215.454C76.4842 214.804 76.3772 214.113 76.3256 213.382C76.303 213.063 76.291 212.736 76.291 212.402V208.304H83.5474V212.402C83.5474 212.736 83.5354 213.063 83.5128 213.382C83.4612 214.113 83.3542 214.804 83.2083 215.454Z" fill="white"/>
<path fill-rule="evenodd" clip-rule="evenodd" d="M65.3914 194.847C67.3658 194.847 68.9664 196.448 68.9664 198.422V209.234C68.9664 211.209 67.3658 212.809 65.3914 212.809C63.417 212.809 61.8164 211.209 61.8164 209.234V198.422C61.8164 196.448 63.417 194.847 65.3914 194.847Z" fill="white"/>
<path d="M77.1783 74.9678H69.9219V79.0662C69.9219 84.879 73.5501 88.5371 73.5501 88.5371C73.5501 88.5371 77.1783 84.879 77.1783 79.0662V74.9678Z" fill="white"/>
<path fill-rule="evenodd" clip-rule="evenodd" d="M76.8392 82.1178C75.9377 86.1298 73.5501 88.5371 73.5501 88.5371C73.5501 88.5371 71.1625 86.1298 70.261 82.1178C70.115 81.4682 70.008 80.7766 69.9564 80.0463C69.9338 79.7269 69.9219 79.4001 69.9219 79.0662V74.9678H77.1783V79.0662C77.1783 79.4001 77.1663 79.7269 77.1437 80.0463C77.0921 80.7766 76.9851 81.4682 76.8392 82.1178Z" fill="white"/>
</svg>
