<svg width="103" height="186" viewBox="0 0 103 186" fill="none" xmlns="http://www.w3.org/2000/svg">
<path d="M2.35059 140.746C7.24607 149.006 28.7878 147.461 31.5094 140.746M2.35059 140.746V148.83M2.35059 140.746C3.34417 130.959 31.5094 131.284 31.5094 140.746M31.5094 140.746V148.83M2.35059 148.83V156.361M2.35059 148.83C7.24607 157.089 28.7878 155.545 31.5094 148.83M31.5094 148.83V156.361M2.35059 156.361V163.556M2.35059 156.361C7.24607 164.621 28.7878 163.076 31.5094 156.361M31.5094 156.361V163.556M2.35059 163.556V170.666M2.35059 163.556C7.24607 171.816 28.7878 170.271 31.5094 163.556M31.5094 163.556V170.666M2.35059 170.666V176.989C4.2838 186.598 30.8635 184.748 31.5094 176.989V170.666M2.35059 170.666C7.24607 178.926 28.7878 177.381 31.5094 170.666" stroke="#FE0000" stroke-width="3"/>
<path d="M37.4238 157.021C42.1266 165.057 62.9754 165.601 66.5827 157.021M37.4238 157.021V164.216M37.4238 157.021C39.2178 148.064 64.555 148.469 66.5827 157.021M66.5827 157.021V164.216M37.4238 164.216V171.358M37.4238 164.216C42.0177 172.133 63.3564 172.242 66.5827 164.216M66.5827 164.216V171.358M37.4238 171.358V177.648C40.3781 185.469 63.5721 185.469 66.5827 177.648V171.358M37.4238 171.358C43.5964 178.883 62.1044 178.938 66.5827 171.358" stroke="#FE0000" stroke-width="3"/>
<path d="M72.2432 170.326V177.924C75.4732 184.736 99.3342 184.54 101.254 177.924V170.326M72.2432 170.326C73.2201 162.594 100.402 163.773 101.254 170.326M72.2432 170.326C76.5714 177.311 97.2805 177.311 101.254 170.326" stroke="#FE0000" stroke-width="3"/>
<path d="M5.64746 109.135L41.4812 130.916L61.1551 126.7L93.8274 147.428" stroke="#FE0000" stroke-width="3"/>
<path d="M98.0477 149.768L85.4408 148.658L91.3324 139.041L98.0477 149.768Z" fill="#FE0000"/>
<path d="M33.8658 101.683C37.0175 105.29 46.1533 117.722 47.4763 116.969M47.4763 116.969V131.139M47.4763 116.969C47.4763 116.969 46.4555 101.902 63.4687 89.0332C80.4818 76.1639 95.4534 59.528 76.3987 41.0088M55.6426 44.1476C46.7958 39.7532 38.4232 39.7461 26.9808 52.3539C15.5385 64.9616 15.8089 86.2186 10.1567 109.882C39.287 103.866 52.8408 84.998 57.3439 74.2806C62.113 62.9304 64.4894 48.542 55.6426 44.1476Z" stroke="#FE0000" stroke-width="3"/>
<path d="M40.5908 109.48L40.5908 129.569" stroke="#FE0000" stroke-width="3"/>
<path d="M49.0058 16.3916C41.6362 14.4756 34.7786 10.4424 33.618 3.3529C33.4801 2.51039 34.4647 2.02275 35.1663 2.50908C40.8172 6.42575 50.7079 9.84668 61.501 9.84668C72.9479 9.84668 82.1076 6.43295 87.6091 2.52143C88.3049 2.02674 89.285 2.51049 89.1431 3.35234C87.948 10.4422 80.8945 14.4755 73.5247 16.3916C66.9235 18.1079 61.8488 23.1477 61.8488 30.7483C61.8488 23.1477 57.0942 18.4946 49.0058 16.3916Z" fill="white" stroke="#FE0000" stroke-width="3"/>
<path d="M40.4091 11.2559C30.2123 24.4627 37.1647 35.6938 45.044 39.2962C52.9233 42.8986 57.5582 43.9581 61.7296 50.1034C65.4375 43.7462 69.8407 43.3224 77.72 39.2962C85.5993 35.27 92.5517 24.4627 82.3549 11.2559" stroke="#FE0000" stroke-width="3"/>
<path d="M46.9478 23.1475H47.685C51.6495 23.1475 54.8633 26.3613 54.8633 30.3258H54.1261C50.1616 30.3258 46.9478 27.112 46.9478 23.1475Z" fill="#FE0000"/>
<path d="M76.749 23.1475H76.0118C72.0473 23.1475 68.8334 26.3613 68.8334 30.3258H69.5707C73.5352 30.3258 76.749 27.112 76.749 23.1475Z" fill="#FE0000"/>
<path d="M63.7108 29.9043H59.9858V31.825C59.9858 34.5491 61.8483 36.2635 61.8483 36.2635C61.8483 36.2635 63.7108 34.5491 63.7108 31.825V29.9043Z" fill="#FE0000"/>
</svg>
