<svg width="176" height="189" viewBox="0 0 176 189" fill="none" xmlns="http://www.w3.org/2000/svg">
<path d="M148.483 134.731C160.278 144.907 161.203 155.545 170.916 156.933C166.277 159.552 163.318 159.909 156.809 156.933C157.393 162.144 158.441 164.657 163.053 167.571C144.741 169.214 152.044 161.053 136.078 148.202C148.136 161.846 137.315 172.403 145.801 180.874C139.468 179.875 136.674 178.201 133.434 172.571C131.861 178.244 131.701 181.155 133.434 185.644C117.092 176.811 125.341 167.192 115.976 152.087" stroke="#FE0000" stroke-width="3"/>
<circle cx="84.9064" cy="84.1125" r="64.1574" stroke="#FE0000" stroke-width="3"/>
<path d="M109.539 5.92831C101.627 3.70027 94.4352 20.5873 94.4352 20.5873C94.4352 20.5873 92.6903 1.69989 84.324 1.7002C74.7559 1.70054 74.349 19.6933 74.349 19.6933C74.349 19.6933 66.0565 2.92886 57.6937 5.92831C50.1774 8.62416 55.2228 26.2257 55.2228 26.2257C55.2228 26.2257 41.8981 12.4307 35.639 17.898C29.6782 23.1047 39.208 37.8479 39.208 37.8479C39.208 37.8479 22.2461 28.3837 18.0685 35.5601C14.1669 42.2624 27.4944 53.0391 27.4944 53.0391C27.4944 53.0391 7.9505 49.0445 6.09237 58.5041C4.37801 67.2318 20.1735 73.355 20.1735 73.355C20.1735 73.355 1.65094 74.9783 2.51151 84.6111C3.20276 92.3486 20.1735 93.7624 20.1735 93.7624C20.1735 93.7624 1.83549 101.426 6.6293 110.784C10.1158 117.59 26.0301 113.438 26.0301 113.438C26.0301 113.438 11.833 125.228 17.8854 132.198C23.1229 138.229 38.2014 129.819 38.2014 129.819C38.2014 129.819 27.627 146.343 37.0117 151.141C44.0847 154.758 55.3143 142.264 55.3143 142.264C55.3143 142.264 50.1376 161.311 61.1708 162.946C68.7282 164.067 74.349 148.487 74.349 148.487C74.349 148.487 75.9383 166.951 85.8799 166.515C93.8005 166.168 95.2143 148.487 95.2143 148.487C95.2143 148.487 102.797 166.515 112.419 162.306C119.616 159.157 114.157 142.264 114.157 142.264C114.157 142.264 127.712 156.394 135.206 149.768C141.2 144.468 130.538 129.819 130.538 129.819C130.538 129.819 146.829 138.921 151.769 132.198C156.75 125.419 142.801 112.614 142.801 112.614C142.801 112.614 160.34 118.063 163.483 109.137C166.269 101.222 148.475 93.7624 148.475 93.7624C148.475 93.7624 167.073 92.7908 167.327 84.6111C167.584 76.3026 148.475 74.7277 148.475 74.7277C148.475 74.7277 166.108 67.8085 163.025 58.8044C160.326 50.92 142.069 54.7778 142.069 54.7778C142.069 54.7778 157.11 42.8299 151.129 35.5601C146.025 29.3567 130.904 39.3121 130.904 39.3121C130.904 39.3121 140.082 23.1106 133.467 17.898C125.939 11.9665 114.066 26.9578 114.066 26.9578C114.066 26.9578 117.625 8.20543 109.539 5.92831Z" stroke="#FE0000" stroke-width="3"/>
<path d="M105.565 85.3074C105.565 102.864 97.0999 113.53 85.0795 113.53C73.0591 113.53 64.5728 101.489 64.5728 83.9316" stroke="#FE0000" stroke-width="3"/>
<path d="M74.9402 43.7199C72.7809 41.9104 70.6216 39.1355 70.0356 33.7472C69.9315 32.7903 71.1232 32.3698 71.7505 33.0999C74.3406 36.1142 77.6441 38.6851 82.989 38.6851C88.799 38.6851 95.2816 35.9901 99.0515 32.8835C99.7943 32.2713 101.01 32.7876 100.755 33.7156C99.1789 39.4441 93.3172 43.1928 89.4281 44.7799C85.7331 46.2878 84.1531 49.5473 82.0834 54.5821C79.6964 47.7058 77.4715 45.8412 74.943 43.7223L74.9402 43.7199Z" fill="white" stroke="#FE0000" stroke-width="3"/>
<path d="M71.5342 38.0303C64.0282 50.3832 68.0406 59.8844 71.9503 63.3293C75.86 66.7741 79.0128 68.0951 82.0835 73.843C85.0731 68.2782 91.9066 67.3601 97.7067 63.5942C103.507 59.8284 106.698 50.3832 99.1917 38.0303" stroke="#FE0000" stroke-width="3"/>
<path d="M71.894 50.1088L72.1687 49.983C74.8908 48.7371 77.4863 50.4262 77.9658 53.7557L78.0142 54.0917L77.7395 54.2174C75.0174 55.4634 72.4219 53.7743 71.9424 50.4447L71.894 50.1088Z" fill="#FE0000"/>
<path d="M93.4886 51.4831L93.2198 51.2744C90.5563 49.206 87.7418 50.433 86.9337 54.0151L86.8521 54.3765L87.1209 54.5852C89.7844 56.6537 92.5988 55.4267 93.407 51.8446L93.4886 51.4831Z" fill="#FE0000"/>
<path d="M78.1656 111.16C78.1656 111.16 77.3665 114.715 76.3382 117.874C75.3099 121.034 73.2534 124.194 73.2534 124.194C73.2534 124.194 76.8758 130.908 85.9353 130.908C94.9948 130.908 98.2744 124.194 98.2744 124.194C98.2744 124.194 96.0465 120.442 95.0182 117.874C93.99 115.307 92.9238 111.16 92.9238 111.16" stroke="#FE0000" stroke-width="3"/>
<path d="M72.1337 64.2127C65.4133 73.8421 62.5822 85.3079 66.5621 99.3681C61.3882 95.397 58.1924 83.0911 59.3987 75.6775C60.5926 68.34 65.5119 61.4745 68.5019 59.6196" stroke="#FE0000" stroke-width="3"/>
<path d="M93.1078 66.2448C99.8282 75.8742 109.636 88.504 110.555 99.3687C113.621 93.7533 115.798 83.9387 113.575 76.8444C110.585 67.3047 104.607 61.4749 101.617 59.62" stroke="#FE0000" stroke-width="3"/>
<path d="M98.0029 107.779L103.522 121.016" stroke="#FE0000" stroke-width="3"/>
<path d="M72.6401 108.113L66.201 120.82" stroke="#FE0000" stroke-width="3"/>
<path d="M83.0046 54.0231L80.2803 53.665L80.1036 55.45C79.853 57.9815 81.0574 59.7538 81.0574 59.7538C81.0574 59.7538 82.5773 58.3396 82.8279 55.8081L83.0046 54.0231Z" fill="#FE0000"/>
<path d="M43.1206 121.034H130.278" stroke="#FE0000" stroke-width="3"/>
</svg>
