<svg width="167" height="175" viewBox="0 0 167 175" fill="none" xmlns="http://www.w3.org/2000/svg">
<path d="M58.2047 42.2646C47.8067 46.1289 40.4126 61.3345 40.4126 71.7298C40.4126 93.2023 59.1375 106.025 82.2357 106.025C105.334 106.025 124.058 93.2023 124.058 71.7298C124.058 61.8695 117.82 46.3704 107.422 42.2646" stroke="#FE0000" stroke-width="3"/>
<path d="M73.0107 49.9929C59.593 55.6237 48.0976 60.2743 40.8494 75.9818" stroke="#FE0000" stroke-width="3"/>
<path d="M91.6836 49.9929C105.101 55.6237 116.597 60.2743 123.845 75.9818" stroke="#FE0000" stroke-width="3"/>
<path d="M82.9168 35.302C79.4379 26.9555 75.1458 24.3323 70.0435 21.9476C65.3618 19.7595 56.5799 11.7493 55.1634 3.07476C55.021 2.20292 56.055 1.72382 56.7515 2.26725C62.3922 6.66849 72.2086 10.501 82.9168 10.501" stroke="#FE0000" stroke-width="3"/>
<path d="M82.9167 35.302C86.3956 26.9555 90.6877 24.3323 95.79 21.9476C100.472 19.7595 109.254 11.7493 110.67 3.07476C110.812 2.20292 109.779 1.72382 109.082 2.26725C103.441 6.66849 93.6249 10.501 82.9167 10.501" stroke="#FE0000" stroke-width="3"/>
<path d="M58.0252 11.833C45.9169 27.5977 54.1725 41.0039 63.5289 45.3041C72.8853 49.6042 78.389 50.8689 83.3424 58.2044C87.7454 50.616 92.974 50.1101 102.33 45.3041C111.687 40.4981 119.942 27.5977 107.834 11.833" stroke="#FE0000" stroke-width="3"/>
<path d="M67.6316 29.8737L69.2893 29.2103C71.4866 28.3311 74.4679 29.1679 75.9482 31.0794L77.065 32.5216L75.4073 33.1849C73.21 34.0642 70.2287 33.2274 68.7484 31.3158L67.6316 29.8737Z" fill="#FE0000"/>
<path d="M98.4223 29.8662L96.7776 29.1791C94.5976 28.2684 91.6161 29.0619 90.1182 30.9515L88.9882 32.3771L90.6329 33.0642C92.8129 33.9749 95.7944 33.1814 97.2923 31.2918L98.4223 29.8662Z" fill="#FE0000"/>
<path d="M84.7776 32.6035H81.0806V35.2296C81.0806 38.9542 82.9291 41.2982 82.9291 41.2982C82.9291 41.2982 84.7776 38.9542 84.7776 35.2296V32.6035Z" fill="#FE0000"/>
<rect x="51.6064" y="106.055" width="61.4803" height="63.9089" stroke="#FE0000" stroke-width="3"/>
<path d="M73.4474 122.912L81.0074 117.836H87.4874V155.636H81.0074V124.532L73.4474 129.554V122.912Z" fill="#FE0000"/>
<rect x="1.98291" y="130.18" width="49.2303" height="39.7839" stroke="#FE0000" stroke-width="3"/>
<rect x="113.48" y="142.569" width="51.5367" height="27.3939" stroke="#FE0000" stroke-width="3"/>
</svg>
