<svg width="165" height="163" viewBox="0 0 165 163" fill="none" xmlns="http://www.w3.org/2000/svg">
<rect x="85.7212" y="140.469" width="11.861" height="20.0607" stroke="#FE0000" stroke-width="3"/>
<rect x="63.3262" y="150.406" width="11.861" height="10.1226" stroke="#FE0000" stroke-width="3"/>
<rect x="106.329" y="122.402" width="11.861" height="38.1267" stroke="#FE0000" stroke-width="3"/>
<rect x="126.936" y="102.271" width="11.861" height="58.2582" stroke="#FE0000" stroke-width="3"/>
<rect x="147.541" y="87.5391" width="11.861" height="72.9898" stroke="#FE0000" stroke-width="3"/>
<path d="M64.8903 47.0342C60.781 53.2119 58.2583 61.5741 58.2583 70.7802C58.2583 89.7962 69.0217 105.212 82.2991 105.212C95.5765 105.212 106.34 89.7962 106.34 70.7802C106.34 62.0479 104.07 54.0749 100.33 48.0051" stroke="#FE0000" stroke-width="3"/>
<path d="M72.8022 28.6392C66.9018 26.7278 61.405 22.7369 60.337 15.7578C60.1999 14.8621 61.2995 14.3812 62.0012 14.9546C66.6598 18.7614 74.4671 22.0087 82.962 22.0087C91.9678 22.0087 99.2325 18.7708 103.746 14.9712C104.439 14.3876 105.531 14.8621 105.39 15.7573C104.29 22.7366 98.639 26.7278 92.7384 28.6392C87.3709 30.3779 83.2447 35.4836 83.2447 43.1836C83.2447 35.4836 79.3788 30.7696 72.8022 28.6392Z" fill="white" stroke="#FE0000" stroke-width="3"/>
<path d="M65.8139 23.4365C57.5229 36.8161 63.1759 48.1939 69.5825 51.8434C75.9892 55.4929 79.7578 56.5663 83.1495 62.7919C86.1644 56.3516 89.7446 55.9222 96.1513 51.8434C102.558 47.7646 108.211 36.8161 99.9199 23.4365" stroke="#FE0000" stroke-width="3"/>
<path d="M70.3829 36.6296L70.4884 36.5583C73.8703 34.2722 77.183 36.0152 77.8876 40.4514L77.7821 40.5227C74.4002 42.8088 71.0874 41.0658 70.3829 36.6296Z" fill="#FE0000"/>
<path d="M95.1511 36.7177L95.0481 36.648C91.7439 34.4145 88.5073 36.1174 87.8189 40.4517L87.922 40.5213C91.2262 42.7549 94.4628 41.052 95.1511 36.7177Z" fill="#FE0000"/>
<path d="M74.6627 102.646C74.6627 102.646 73.78 106.495 72.6442 109.918C71.5084 113.34 69.2368 116.762 69.2368 116.762C69.2368 116.762 73.238 124.034 83.2448 124.034C93.2517 124.034 96.8743 116.762 96.8743 116.762C96.8743 116.762 94.4134 112.698 93.2776 109.918C92.1419 107.137 90.9642 102.646 90.9642 102.646" stroke="#FE0000" stroke-width="3"/>
<path d="M84.7597 42.3281H81.731V44.2739C81.731 47.0337 83.2453 48.7704 83.2453 48.7704C83.2453 48.7704 84.7597 47.0337 84.7597 44.2739V42.3281Z" fill="#FE0000"/>
<path d="M60.7885 56.993C57.5879 50.9984 54.0835 46.4807 45.3635 45.688C34.5333 42.586 27.7676 41.3498 22.8501 34.2523C13.9085 20.5913 12.189 15.4691 11.4707 6.55777C5.05694 18.8499 5.42817 26.6193 15.6844 42.586C11.1799 40.4296 9.17162 38.6151 6.85466 34.2523C3.99614 42.5393 8.0255 48.7063 18.3932 60.5711C16.3108 60.8531 15.674 60.2851 12.9294 60.0742C15.1626 66.4692 17.0306 64.6207 21.9803 71.165C26.93 77.7093 29.6432 78.8975 35.7683 78.7187C34.8248 80.0115 34.5333 82.6571 34.5333 82.6571C34.5333 82.6571 46.6152 83.5854 50.357 80.6297C53.4693 78.1713 56.0679 75.1274 57.9509 70.3606" stroke="#FE0000" stroke-width="3"/>
<path d="M103.81 56.993C107.01 50.9984 110.515 46.4807 119.235 45.688C130.065 42.586 136.831 41.3498 141.748 34.2523C150.69 20.5913 152.409 15.4691 153.127 6.55777C159.541 18.8499 159.17 26.6193 148.914 42.586C153.418 40.4296 155.427 38.6151 157.743 34.2523C160.602 42.5393 156.573 48.7063 146.205 60.5711C148.287 60.8531 148.924 60.2851 151.669 60.0742C149.436 66.4692 147.568 64.6207 142.618 71.165C137.668 77.7093 134.955 78.8975 128.83 78.7187C129.773 80.0115 130.065 82.6571 130.065 82.6571C130.065 82.6571 117.983 83.5854 114.241 80.6297C111.129 78.1713 108.53 75.1274 106.647 70.3606" stroke="#FE0000" stroke-width="3"/>
<path d="M79.1778 108.016C79.1778 108.083 79.1758 108.148 79.1721 108.213C79.1684 108.148 79.1665 108.083 79.1665 108.016V107.941H79.1778V108.016Z" fill="white" stroke="#FE0000" stroke-width="3"/>
<path d="M79.167 102.644V106.798" stroke="#FE0000" stroke-width="3" stroke-linecap="round" stroke-linejoin="round"/>
<mask id="path-17-inside-1" fill="white">
<path d="M88.4137 106.441H85.4219V108.016C85.4219 110.25 86.9178 111.656 86.9178 111.656C86.9178 111.656 88.4137 110.25 88.4137 108.016V106.441Z"/>
</mask>
<path d="M88.4137 106.441H85.4219V108.016C85.4219 110.25 86.9178 111.656 86.9178 111.656C86.9178 111.656 88.4137 110.25 88.4137 108.016V106.441Z" fill="white"/>
<path d="M85.4219 106.441V103.441H82.4219V106.441H85.4219ZM88.4137 106.441H91.4137V103.441H88.4137V106.441ZM86.9178 111.656L84.8634 113.842L86.9178 115.773L88.9722 113.842L86.9178 111.656ZM85.4219 109.441H88.4137V103.441H85.4219V109.441ZM86.9178 111.656C88.9722 109.47 88.973 109.47 88.9739 109.471C88.9741 109.471 88.975 109.472 88.9755 109.473C88.9766 109.474 88.9777 109.475 88.9787 109.476C88.9808 109.478 88.9828 109.48 88.9847 109.482C88.9886 109.485 88.9921 109.489 88.9954 109.492C89.0018 109.498 89.007 109.503 89.0111 109.507C89.0192 109.515 89.0227 109.519 89.0224 109.518C89.0215 109.517 89.0057 109.501 88.9797 109.47C88.9261 109.406 88.8396 109.294 88.7502 109.144C88.5672 108.835 88.4219 108.451 88.4219 108.016H82.4219C82.4219 109.815 83.0245 111.251 83.5894 112.204C83.8741 112.684 84.1615 113.063 84.3884 113.333C84.5026 113.468 84.6037 113.579 84.6846 113.664C84.7252 113.706 84.7609 113.742 84.7909 113.772C84.8059 113.787 84.8195 113.8 84.8316 113.812C84.8377 113.818 84.8433 113.823 84.8486 113.828C84.8513 113.831 84.8538 113.833 84.8563 113.835C84.8575 113.836 84.8587 113.838 84.8599 113.839C84.8605 113.839 84.8613 113.84 84.8616 113.84C84.8625 113.841 84.8634 113.842 86.9178 111.656ZM85.4137 108.016C85.4137 108.451 85.2684 108.835 85.0853 109.144C84.996 109.294 84.9095 109.406 84.8559 109.47C84.8299 109.501 84.8141 109.517 84.8132 109.518C84.8128 109.519 84.8164 109.515 84.8245 109.507C84.8285 109.503 84.8337 109.498 84.8402 109.492C84.8434 109.489 84.8469 109.485 84.8508 109.482C84.8527 109.48 84.8547 109.478 84.8568 109.476C84.8579 109.475 84.8589 109.474 84.86 109.473C84.8606 109.472 84.8614 109.471 84.8617 109.471C84.8625 109.47 84.8634 109.47 86.9178 111.656C88.9722 113.842 88.973 113.841 88.9739 113.84C88.9742 113.84 88.9751 113.839 88.9757 113.839C88.9768 113.838 88.978 113.836 88.9793 113.835C88.9817 113.833 88.9843 113.831 88.9869 113.828C88.9922 113.823 88.9979 113.818 89.0039 113.812C89.0161 113.8 89.0297 113.787 89.0447 113.772C89.0747 113.742 89.1104 113.706 89.1509 113.664C89.2318 113.579 89.3329 113.468 89.4471 113.333C89.674 113.063 89.9615 112.684 90.2461 112.204C90.811 111.251 91.4137 109.815 91.4137 108.016H85.4137ZM88.4219 108.016V106.441H82.4219V108.016H88.4219ZM85.4137 106.441V108.016H91.4137V106.441H85.4137Z" fill="#FE0000" mask="url(#path-17-inside-1)"/>
<path d="M86.9175 102.645V106.799" stroke="#FE0000" stroke-width="3" stroke-linecap="round" stroke-linejoin="round"/>
</svg>
