<svg width="166" height="167" viewBox="0 0 166 167" fill="none" xmlns="http://www.w3.org/2000/svg">
<path d="M103.917 130.213L111.071 136.631L112.778 135.797C115.747 134.348 118.606 132.683 121.334 130.815L122.903 129.742L120.995 120.518C124.025 118.061 126.811 115.311 129.312 112.312L138.341 114.204L139.408 112.629C141.264 109.882 142.92 107.004 144.362 104.016L145.19 102.298L139.2 95.5349C140.646 91.8029 141.732 87.8897 142.415 83.8385L150.825 81.0387L150.961 79.1353C151.083 77.4888 151.163 75.828 151.163 74.15C151.163 72.4721 151.083 70.8112 150.964 69.1618L150.828 67.2585L142.56 64.5081C141.925 60.3529 140.866 56.3381 139.43 52.5096L145.193 46.0045L144.365 44.2866C142.925 41.2995 141.27 38.4221 139.413 35.6772L138.347 34.0991L129.915 35.8651C127.304 32.6311 124.365 29.6754 121.15 27.0494L122.905 18.5639L121.34 17.4909C118.611 15.6222 115.75 13.9561 112.781 12.5056L111.074 11.6723L104.598 17.4816C100.798 16.0407 96.8137 14.9785 92.6904 14.3405L89.9489 6.00211L88.0573 5.86513C84.7577 5.62829 81.4454 5.62829 78.1457 5.86513L76.2542 6.00211L73.4653 14.4906C69.4498 15.1768 65.5707 16.2664 61.8708 17.7163L55.1321 11.6694L53.4249 12.5027C50.4561 13.9528 47.5965 15.619 44.8688 17.488L43.3006 18.561L45.1842 27.6666C42.2071 30.1788 39.4771 32.9777 37.0363 36.0212L27.8617 34.0991L26.7954 35.6743C24.9384 38.4202 23.2825 41.2986 21.841 44.2866L21.0129 46.0045L27.3916 53.2045C26.1191 56.7287 25.165 60.4066 24.5644 64.2031L15.3779 67.2613L15.2418 69.1647C15.117 70.8112 15.0376 72.4721 15.0376 74.15C15.0376 75.828 15.117 77.4888 15.2361 79.1382L15.3722 81.0416L24.7158 84.1498C25.3577 87.8398 26.3343 91.4139 27.6129 94.8394L21.0072 102.296L21.8353 104.013C23.2757 107 24.9306 109.878 26.7869 112.623L27.8532 114.201L37.6331 112.153C39.9602 114.963 42.5374 117.556 45.3305 119.898L43.2949 129.736L44.8603 130.809C47.5892 132.678 50.4497 134.344 53.4192 135.794L55.1264 136.628L62.5359 129.981" stroke="#FE0000" stroke-width="3"/>
<path d="M58.6301 67.1787C52.9502 74.6757 49.4634 84.8235 49.4634 95.9954C49.4634 119.072 64.3407 137.78 82.6927 137.78C101.045 137.78 115.922 119.072 115.922 95.9954C115.922 85.3985 112.785 75.7229 107.615 68.357" stroke="#FE0000" stroke-width="3"/>
<path d="M43.9126 20.2129L44.9411 19.1211C44.4914 18.6974 43.8279 18.5928 43.2697 18.8576C42.7115 19.1224 42.3727 19.7024 42.4163 20.3187L43.9126 20.2129ZM122.288 20.2129L123.784 20.3187C123.827 19.7024 123.489 19.1224 122.93 18.8576C122.372 18.5928 121.709 18.6974 121.259 19.1211L122.288 20.2129ZM97.1152 44.6907L97.5284 46.1327L97.1152 44.6907ZM42.4163 20.3187C42.9719 28.1749 47.4404 33.9972 52.7975 38.1309C58.143 42.2556 64.4893 44.7984 69.1462 46.1327L69.9725 43.2488C65.5391 41.9785 59.5777 39.5734 54.6302 35.7557C49.6943 31.9471 45.8845 26.8327 45.4089 20.1071L42.4163 20.3187ZM69.1462 46.1327C73.492 47.3778 76.8079 49.3395 79.0365 51.9926C81.2502 54.6279 82.4931 58.0656 82.4931 62.4717H85.4931C85.4931 57.4643 84.0643 53.3138 81.3336 50.0631C78.618 46.8302 74.717 44.6081 69.9725 43.2488L69.1462 46.1327ZM42.8841 21.3047C48.9586 27.0271 64.601 36.0235 83.6023 36.0235V33.0235C65.4515 33.0235 50.5249 24.3811 44.9411 19.1211L42.8841 21.3047ZM120.791 20.1071C120.314 26.8501 116.606 31.9656 111.794 35.7662C106.967 39.5785 101.129 41.9805 96.7021 43.2488L97.5284 46.1327C102.192 44.7965 108.424 42.2504 113.653 38.1204C118.897 33.9787 123.23 28.1575 123.784 20.3187L120.791 20.1071ZM96.7021 43.2488C88.6856 45.5456 82.4931 52.3424 82.4931 62.4717H85.4931C85.4931 53.7741 90.7071 48.0871 97.5284 46.1327L96.7021 43.2488ZM121.259 19.1211C115.653 24.4023 101.726 33.0235 83.6023 33.0235V36.0235C102.631 36.0235 117.264 27.0058 123.316 21.3047L121.259 19.1211Z" fill="#FE0000"/>
<path d="M57.8513 39.3613C46.3915 55.7182 55.2362 68.5974 64.0915 73.059C72.9468 77.5207 79.1871 78.8329 83.8752 86.4439C88.0424 78.5704 94.0222 78.0455 102.877 73.059C111.733 68.0725 120.578 55.7182 109.118 39.3613" stroke="#FE0000" stroke-width="3"/>
<path d="M74.4572 60.2537C71.7356 59.6152 69.5919 57.4736 68.9525 54.754C71.6741 55.3925 73.8178 57.5341 74.4572 60.2537Z" fill="white" stroke="#FE0000" stroke-width="3"/>
<path d="M93.5463 60.2537C96.2678 59.6152 98.4115 57.4736 99.0509 54.754C96.3293 55.3925 94.1856 57.5341 93.5463 60.2537Z" fill="white" stroke="#FE0000" stroke-width="3"/>
<path d="M72.1383 135.164C72.1383 135.164 70.9182 139.871 69.3483 144.055C67.7785 148.238 64.6387 152.422 64.6387 152.422C64.6387 152.422 70.1691 161.312 84.0007 161.312C97.8322 161.312 102.839 152.422 102.839 152.422C102.839 152.422 99.4379 147.454 97.868 144.055C96.2981 140.655 94.6704 135.164 94.6704 135.164" stroke="#FE0000" stroke-width="3"/>
<path d="M73.553 78.6792C63.2926 91.3745 54.4101 102.088 55.5864 120.85" stroke="#FE0000" stroke-width="3"/>
<path d="M92.7444 77.6382C102.891 90.1924 111.676 100.786 110.403 119.428" stroke="#FE0000" stroke-width="3"/>
<path d="M87.6543 133.081V139.357" stroke="#FE0000" stroke-width="3" stroke-linecap="round" stroke-linejoin="round"/>
<path d="M79.4837 140.657C79.4837 141.17 79.4061 141.639 79.2875 142.056C79.1689 141.639 79.0913 141.17 79.0913 140.657V140.229H79.4837V140.657Z" fill="white" stroke="#FE0000" stroke-width="3"/>
<path d="M87.8623 140.383C87.8623 140.915 87.7795 141.401 87.6541 141.83C87.5286 141.401 87.4458 140.915 87.4458 140.383V139.941H87.8623V140.383Z" fill="white" stroke="#FE0000" stroke-width="3"/>
<path d="M79.2876 133.081V139.357" stroke="#FE0000" stroke-width="3" stroke-linecap="round" stroke-linejoin="round"/>
<path d="M84.5881 63.85C84.5808 64.9158 84.3175 65.8316 83.995 66.5559C83.6748 65.8365 83.4129 64.9282 83.4022 63.8717C83.4277 63.615 83.4659 63.383 83.563 63.0518H84.4952C84.5322 63.2296 84.5633 63.4721 84.5881 63.85Z" fill="white" stroke="#FE0000" stroke-width="3"/>
</svg>
